<svg xmlns="http://www.w3.org/2000/svg" viewBox="0 0 300 420" role="img" aria-label="Embalagem ilustrada de café Caffè Camillo"><defs><linearGradient id="g" x1="0" x2="1"><stop stop-color="#F3C84B"/><stop offset="1" stop-color="#F3C84B" stop-opacity=".82"/></linearGradient></defs><path d="M52 40h196l22 62-18 270c-1 18-16 32-34 32H82c-18 0-33-14-34-32L30 102z" fill="url(#g)"/><path d="M52 40h196l22 62H30z" fill="#B52A2D"/><circle cx="150" cy="190" r="60" fill="#fff" opacity=".94"/><text x="150" y="178" text-anchor="middle" font-family="Arial" font-size="18" font-weight="700" fill="#2b2520">CAFFÈ</text><text x="150" y="205" text-anchor="middle" font-family="Arial" font-size="26" font-weight="900" fill="#B52A2D">CAMILLO</text><text x="150" y="228" text-anchor="middle" font-family="Arial" font-size="12" font-weight="700" fill="#5B7382">COLOMBI</text><path d="M130 265c15-22 36-23 49-5-17 2-30 10-39 23-9-2-13-8-10-18z" fill="#B52A2D"/><path d="M110 294c30 20 56 20 80 0" fill="none" stroke="#B52A2D" stroke-width="6" stroke-linecap="round"/></svg>