<svg xmlns="http://www.w3.org/2000/svg" viewBox="0 0 620 460" fill="none"><circle cx="477" cy="84" r="44" fill="#edc345"/><path d="M10 235Q118 74 266 240Q390 67 600 227V420H10Z" fill="#adb286"/><path d="M10 314Q229 118 598 314V420H10Z" fill="#427349"/><g stroke="#473526" stroke-width="3" stroke-linecap="round" stroke-linejoin="round"><path d="M270 262V171L355 117L430 171V265Z" fill="#faf0d6"/><path d="M251 173L355 105L445 174" fill="#af342c"/><path d="M333 262V205H375V263M284 187H316V224H284ZM389 187H416V224H389Z" fill="#cfb66d"/><path d="M105 299Q288 236 465 319M60 337Q286 257 529 354M29 377Q286 280 583 393" stroke="#e6dab8" stroke-width="9"/><path d="M204 246Q244 214 273 229M456 256Q500 224 541 241"/><path d="M360 267L260 419" stroke="#edc345" stroke-width="15"/></g><g transform="translate(83 304)"><path d="M0 85Q20 35 0-45" stroke="#473526" stroke-width="4"/><path d="M5 15Q-53-20-30-43Q15-31 5 15M7 35Q70 5 55-20Q10-14 7 35M2-20Q32-70 49-59Q49-20 2-20" fill="#427349" stroke="#473526" stroke-width="2"/><circle cx="2" cy="50" r="7" fill="#af342c"/><circle cx="15" cy="53" r="7" fill="#af342c"/></g><g transform="translate(533 330)"><path d="M0 85Q20 35 0-45" stroke="#473526" stroke-width="4"/><path d="M5 15Q-53-20-30-43Q15-31 5 15M7 35Q70 5 55-20Q10-14 7 35M2-20Q32-70 49-59Q49-20 2-20" fill="#427349" stroke="#473526" stroke-width="2"/><circle cx="2" cy="50" r="7" fill="#af342c"/><circle cx="15" cy="53" r="7" fill="#af342c"/></g><g transform="translate(162 395) rotate(50)"><ellipse rx="12" ry="18" fill="#473526"/><path d="M1-13Q-6 0 2 14" stroke="#faf0d6" stroke-width="2"/></g><g transform="translate(457 407) rotate(-35)"><ellipse rx="12" ry="18" fill="#473526"/><path d="M1-13Q-6 0 2 14" stroke="#faf0d6" stroke-width="2"/></g><text x="265" y="453" text-anchor="middle" font-family="Georgia,serif" font-size="25" font-style="italic" fill="#473526">O cuidado começa no grão.</text></svg>