<svg xmlns="http://www.w3.org/2000/svg" viewBox="0 0 280 340" fill="none"><ellipse cx="140" cy="302" rx="111" ry="8" fill="#d8c6a6" opacity=".55"/><g stroke="#473526" stroke-width="3" stroke-linecap="round" stroke-linejoin="round"><ellipse cx="141" cy="277" rx="103" ry="16" fill="#faf0d6"/><path d="M70 284Q140 300 213 284"/><path d="M58.5 165H221.5L208.5 248Q140 270 71.5 248Z" fill="#faf0d6"/><path d="M221.5 179Q272.5 169 259.5 209Q253.5 225 215.5 217"/><ellipse cx="140" cy="165" rx="82" ry="17" fill="#d8ad76"/><ellipse cx="140" cy="165" rx="62" ry="12" fill="#fff4dd"/><path d="M136 174Q99 159 126 153Q141 154 141 164Q146 148 159 155Q178 166 136 174" fill="#c99259" stroke="none"/><path d="M115 118Q100 101 116 83M145 115Q160 93 143 75M172 118Q156 101 172 87"/></g><g transform="translate(36 278) rotate(-30)"><ellipse rx="12" ry="18" fill="#473526"/><path d="M1-13Q-6 0 2 14" stroke="#faf0d6" stroke-width="2"/></g><g transform="translate(241 284) rotate(35)"><ellipse rx="12" ry="18" fill="#473526"/><path d="M1-13Q-6 0 2 14" stroke="#faf0d6" stroke-width="2"/></g></svg>