<svg xmlns="http://www.w3.org/2000/svg" viewBox="0 0 540 390" fill="none"><ellipse cx="264" cy="335" rx="227" ry="24" fill="#e2d4b5"/><circle cx="160" cy="156" r="135" fill="#edc345"/><g stroke="#473526" stroke-width="3" stroke-linecap="round" stroke-linejoin="round"><path d="M94 182L145 171L164 182L151 259H108Z" fill="#faf0d6"/><path d="M110 259H151L164 321H94Z" fill="#af342c"/><path d="M107 181L110 153H151L156 181M113 153L134 141L150 153M109 188L119 252M145 184L140 253M114 268L107 310M144 270L152 308M151 185L172 172L177 181L157 201M105 193Q70 174 76 215L99 229"/><path d="M99 322H160"/><ellipse cx="347" cy="313" rx="75" ry="14" fill="#faf0d6"/><path d="M291 251H396L385 304Q346 323 304 304Z" fill="#faf0d6"/><ellipse cx="344" cy="252" rx="52" ry="11" fill="#473526"/><path d="M397 261Q440 250 434 282Q428 301 389 289M325 228Q310 209 325 188M353 228Q366 207 353 179"/></g><g transform="translate(428 243)"><path d="M0 85Q20 35 0-45" stroke="#473526" stroke-width="4"/><path d="M5 15Q-53-20-30-43Q15-31 5 15M7 35Q70 5 55-20Q10-14 7 35M2-20Q32-70 49-59Q49-20 2-20" fill="#427349" stroke="#473526" stroke-width="2"/><circle cx="2" cy="50" r="7" fill="#af342c"/><circle cx="15" cy="53" r="7" fill="#af342c"/></g><g transform="translate(235 317) rotate(45)"><ellipse rx="12" ry="18" fill="#473526"/><path d="M1-13Q-6 0 2 14" stroke="#faf0d6" stroke-width="2"/></g><g transform="translate(259 337) rotate(-24)"><ellipse rx="12" ry="18" fill="#473526"/><path d="M1-13Q-6 0 2 14" stroke="#faf0d6" stroke-width="2"/></g><path d="M27 354H500" stroke="#473526" stroke-width="2"/></svg>